<?xml version="1.0" encoding="UTF-8"?>
<svg xmlns="http://www.w3.org/2000/svg" version="1.1" viewBox="0 0 65 65">
  <defs>
    <style>
      .cls-1 {
        fill: #0070be;
      }
    </style>
  </defs>
  <!-- Generator: Adobe Illustrator 28.7.1, SVG Export Plug-In . SVG Version: 1.2.0 Build 142)  -->
  <g>
    <g id="Layer_1">
      <path class="cls-1" d="M19.8,64.7c-1.4,0-2.9-.7-3.6-1.7,0-.1-.2-.3-.4-.5-1.3-1.7-4.4-5.6-5-15.9-4.9-6.1-6.1-13.6-3.3-19.5,2.3-4.8,6.8-7.7,12-7.7s5.1.4,7.4,1.3c2.2-.9,4.7-1.3,7.4-1.3,5.2,0,9.7,2.9,12,7.7,2.8,5.9,1.5,13.4-3.3,19.5-.7,10.2-3.7,14.2-5,15.9-.1.2-.3.3-.4.5-.9,1.4-3.1,2.1-4.8,1.5-1.5-.5-2.4-1.8-2.4-3.5,0-11.2-1.5-12.1-3.4-12.1s-3.4.9-3.4,12.1-.9,3.1-2.4,3.5c-.4.1-.8.2-1.2.2ZM19.5,22c-4.1,0-7.7,2.3-9.5,6.2-2.5,5.2-1.2,11.6,3.2,17,.2.2.3.5.3.8.6,9.7,3.3,13.3,4.5,14.8.2.2.3.5.5.6.2.3,1.1.7,1.8.5.2,0,.5-.2.5-1,0-8.4.4-14.8,6-14.8s6,6.4,6,14.8.3.9.5,1c.7.2,1.6-.1,1.8-.5.1-.2.3-.4.5-.6,1.2-1.5,3.9-5.1,4.5-14.8,0-.3.1-.6.3-.8,4.5-5.5,5.7-11.8,3.2-17-1.8-3.9-5.4-6.2-9.5-6.2s-3.2.2-4.6.6c1,.9,1.9,2,2.6,2.9l-2.1,1.6c-1.3-1.7-3-3.3-4-3.9h0c-1.9-.8-4.3-1.3-6.6-1.3ZM53,26c-.5,0-1-.3-1.2-.7l-2.5-5-5-2.5c-.5-.2-.7-.7-.7-1.2s.3-1,.7-1.2l5-2.5,2.5-5c.2-.5.7-.7,1.2-.7h0c.5,0,1,.3,1.2.7l2.5,5,5,2.5c.5.2.7.7.7,1.2s-.3,1-.7,1.2l-5,2.5-2.5,5c-.2.5-.7.7-1.2.7ZM48,16.6l3,1.5c.3.1.5.3.6.6l1.5,3,1.5-3c.1-.3.3-.5.6-.6l3-1.5-3-1.5c-.3-.1-.5-.3-.6-.6l-1.5-3-1.5,3c-.1.3-.3.5-.6.6l-3,1.5ZM36.9,16.6c-.5,0-1-.3-1.2-.7l-2-4.1-4.1-2c-.5-.2-.7-.7-.7-1.2,0-.5.3-1,.7-1.2l4.1-2,2-4.1c.2-.5.7-.7,1.2-.7s1,.3,1.2.7l2,4.1,4.1,2c.5.2.7.7.7,1.2s-.3,1-.7,1.2l-4.1,2-2,4.1c-.2.5-.7.7-1.2.7ZM33.2,8.6l2.1,1c.3.1.5.3.6.6l1,2.1,1-2.1c.1-.3.3-.5.6-.6l2.1-1-2.1-1c-.3-.1-.5-.3-.6-.6l-1-2.1-1,2.1c-.1.3-.3.5-.6.6l-2.1,1Z"/>
    </g>
  </g>
</svg>