<svg width="100%" height="100%" viewBox="0 0 1024 1024" version="1.1" xmlns="http://www.w3.org/2000/svg" xmlns:xlink="http://www.w3.org/1999/xlink" xml:space="preserve" xmlns:serif="http://www.serif.com/" style="fill-rule:evenodd;clip-rule:evenodd;stroke-linejoin:round;stroke-miterlimit:2;">
    <g id="icon--mail">
        <path d="M198.602,70.402L120.539,139.191L42.459,70.401C39.35,67.662 34.611,67.963 31.873,71.07C29.136,74.178 29.434,78.917 32.543,81.656L115.582,154.815C116.999,156.063 118.77,156.687 120.54,156.687C122.31,156.687 124.082,156.063 125.499,154.814L208.521,81.655C211.628,78.917 211.927,74.177 209.189,71.069C206.449,67.964 201.711,67.664 198.602,70.402Z" style="fill-rule:nonzero;"/>
        <path d="M218.561,38.529L22.5,38.529C10.094,38.529 0,48.622 0,61.029L0,180.031C0,192.438 10.094,202.531 22.5,202.531L218.561,202.531C230.967,202.531 241.061,192.438 241.061,180.031L241.061,61.029C241.061,48.623 230.967,38.529 218.561,38.529ZM226.061,180.031C226.061,184.166 222.697,187.531 218.561,187.531L22.5,187.531C18.364,187.531 15,184.166 15,180.031L15,61.029C15,56.894 18.364,53.529 22.5,53.529L218.561,53.529C222.697,53.529 226.061,56.894 226.061,61.029L226.061,180.031Z" style="fill-rule:nonzero;"/>
    </g>
    <g id="icon--phone">
        <path d="M180.948,634.815C163.07,616.937 139.299,607.092 114.017,607.093C109.874,607.093 106.517,610.451 106.517,614.593C106.517,618.735 109.875,622.093 114.017,622.093C135.293,622.092 155.296,630.377 170.341,645.422C185.387,660.467 193.672,680.471 193.671,701.748C193.671,705.89 197.028,709.248 201.171,709.248C205.313,709.248 208.671,705.89 208.671,701.749C208.672,676.464 198.827,652.693 180.948,634.815Z" style="fill-rule:nonzero;"/>
        <path d="M150.096,701.749C150.096,705.891 153.454,709.249 157.597,709.248C161.739,709.248 165.096,705.89 165.096,701.748C165.094,673.588 142.18,650.675 114.018,650.671L114.017,650.671C109.875,650.671 106.518,654.028 106.517,658.17C106.517,662.312 109.874,665.67 114.016,665.671C133.909,665.674 150.094,681.858 150.096,701.749Z" style="fill-rule:nonzero;"/>
        <path d="M133.5,739.989C122.068,739.397 116.244,747.899 113.451,751.983C111.112,755.402 111.988,760.069 115.407,762.408C118.826,764.747 123.493,763.871 125.832,760.452C129.132,755.627 130.627,754.868 132.655,754.964C139.146,755.727 164.711,774.461 167.271,780.319C167.913,782.044 167.889,783.735 167.2,785.792C164.516,793.758 160.073,799.356 154.349,801.98C148.911,804.473 142.244,804.247 135.073,801.329C108.296,790.415 84.902,775.184 65.542,756.058C65.534,756.05 65.526,756.043 65.519,756.035C46.433,736.694 31.23,713.33 20.334,686.594C17.415,679.417 17.189,672.749 19.682,667.312C22.306,661.588 27.904,657.145 35.863,654.464C37.927,653.772 39.615,653.75 41.324,654.386C47.203,656.955 65.936,682.519 66.692,688.937C66.8,691.041 66.035,692.535 61.214,695.829C57.794,698.165 56.915,702.832 59.252,706.252C61.588,709.672 66.254,710.55 69.675,708.214C73.761,705.424 82.261,699.616 81.671,688.145C81.021,676.163 57.713,644.432 46.576,640.337C41.623,638.491 36.413,638.459 31.085,640.247C19.097,644.284 10.439,651.482 6.047,661.062C1.787,670.356 1.922,681.139 6.442,692.251C18.103,720.863 34.418,745.898 54.933,766.663C54.983,766.714 55.034,766.764 55.086,766.813C75.836,787.29 100.842,803.575 129.416,815.222C135.138,817.549 140.773,818.714 146.162,818.714C151.236,818.714 156.094,817.682 160.6,815.616C170.181,811.225 177.378,802.568 181.418,790.572C183.202,785.254 183.173,780.046 181.341,775.116C177.232,763.949 145.501,740.641 133.5,739.989Z" style="fill-rule:nonzero;"/>
    </g>
    <g id="icon--location">
        <path d="M108.552,294.891C62.42,294.891 24.89,332.426 24.89,378.563C24.89,411.53 38.692,444.877 64.804,475C84.307,497.499 103.635,510.246 104.449,510.778C105.695,511.593 107.124,512 108.553,512C109.981,512 111.41,511.593 112.657,510.778C113.47,510.246 132.801,497.499 152.304,475.001C178.418,444.877 192.221,411.53 192.221,378.563C192.22,332.426 154.686,294.891 108.552,294.891ZM108.552,495.291C93.165,483.825 39.89,439.697 39.89,378.563C39.89,340.697 70.691,309.891 108.552,309.891C146.416,309.891 177.22,340.697 177.22,378.563C177.22,439.697 123.94,483.825 108.552,495.291Z" style="fill-rule:nonzero;"/>
        <path d="M108.557,345.34C90.247,345.34 75.351,360.237 75.351,378.549C75.351,396.856 90.247,411.75 108.557,411.75C126.867,411.75 141.762,396.856 141.762,378.549C141.762,360.238 126.866,345.34 108.557,345.34ZM108.557,396.75C98.518,396.75 90.351,388.585 90.351,378.549C90.351,368.508 98.518,360.34 108.557,360.34C118.595,360.34 126.762,368.508 126.762,378.549C126.762,388.585 118.595,396.75 108.557,396.75Z" style="fill-rule:nonzero;"/>
    </g>
</svg>
